<mxfile host="app.diagrams.net" modified="2024-02-09T19:40:38.958Z" agent="Mozilla/5.0 (Macintosh; Intel Mac OS X 10_15_7) AppleWebKit/537.36 (KHTML, like Gecko) Chrome/121.0.0.0 Safari/537.36" etag="c4fLmIVly_c6ETWO6hOV" version="23.1.2" type="github">
  <diagram name="Page-1" id="e7e014a7-5840-1c2e-5031-d8a46d1fe8dd">
    <mxGraphModel dx="985" dy="835" grid="1" gridSize="10" guides="1" tooltips="1" connect="1" arrows="1" fold="1" page="1" pageScale="1" pageWidth="1169" pageHeight="826" background="none" math="0" shadow="0">
      <root>
        <mxCell id="0" />
        <mxCell id="1" parent="0" />
        <mxCell id="2" value="Public" style="swimlane;whiteSpace=wrap" parent="1" vertex="1">
          <mxGeometry x="160" y="120" width="280" height="480" as="geometry" />
        </mxCell>
        <mxCell id="7" value="API Gateway" style="" parent="2" vertex="1">
          <mxGeometry x="80" y="180" width="120" height="80" as="geometry" />
        </mxCell>
        <mxCell id="koB_RqYg8yk5omxa3pV3-43" style="edgeStyle=orthogonalEdgeStyle;rounded=0;orthogonalLoop=1;jettySize=auto;html=1;exitX=0.5;exitY=0.5;exitDx=0;exitDy=0;exitPerimeter=0;entryX=0;entryY=0.5;entryDx=0;entryDy=0;" edge="1" parent="1" source="koB_RqYg8yk5omxa3pV3-41" target="7">
          <mxGeometry relative="1" as="geometry" />
        </mxCell>
        <mxCell id="koB_RqYg8yk5omxa3pV3-41" value="Actor" style="shape=umlActor;verticalLabelPosition=bottom;verticalAlign=top;html=1;outlineConnect=0;" vertex="1" parent="1">
          <mxGeometry x="40" y="317" width="43" height="86" as="geometry" />
        </mxCell>
        <mxCell id="koB_RqYg8yk5omxa3pV3-45" value="Services" style="swimlane;whiteSpace=wrap" vertex="1" parent="1">
          <mxGeometry x="440" y="120" width="680" height="480" as="geometry" />
        </mxCell>
        <mxCell id="koB_RqYg8yk5omxa3pV3-51" style="edgeStyle=orthogonalEdgeStyle;rounded=0;orthogonalLoop=1;jettySize=auto;html=1;exitX=1;exitY=0.5;exitDx=0;exitDy=0;entryX=0;entryY=0.5;entryDx=0;entryDy=0;" edge="1" parent="koB_RqYg8yk5omxa3pV3-45" source="koB_RqYg8yk5omxa3pV3-46" target="koB_RqYg8yk5omxa3pV3-47">
          <mxGeometry relative="1" as="geometry" />
        </mxCell>
        <mxCell id="koB_RqYg8yk5omxa3pV3-46" value="ms auth" style="" vertex="1" parent="koB_RqYg8yk5omxa3pV3-45">
          <mxGeometry x="80" y="40" width="120" height="60" as="geometry" />
        </mxCell>
        <mxCell id="koB_RqYg8yk5omxa3pV3-47" value="ms user" style="" vertex="1" parent="koB_RqYg8yk5omxa3pV3-45">
          <mxGeometry x="280" y="60" width="120" height="60" as="geometry" />
        </mxCell>
        <mxCell id="koB_RqYg8yk5omxa3pV3-95" style="shape=connector;rounded=0;orthogonalLoop=1;jettySize=auto;html=1;exitX=1;exitY=1;exitDx=0;exitDy=0;labelBackgroundColor=default;strokeColor=default;align=center;verticalAlign=middle;fontFamily=Helvetica;fontSize=11;fontColor=default;endArrow=classic;entryX=0.033;entryY=0.327;entryDx=0;entryDy=0;entryPerimeter=0;" edge="1" parent="koB_RqYg8yk5omxa3pV3-45" source="koB_RqYg8yk5omxa3pV3-56" target="koB_RqYg8yk5omxa3pV3-68">
          <mxGeometry relative="1" as="geometry">
            <mxPoint x="440" y="230" as="targetPoint" />
          </mxGeometry>
        </mxCell>
        <mxCell id="koB_RqYg8yk5omxa3pV3-96" value="new-purchase-approved" style="edgeLabel;html=1;align=center;verticalAlign=middle;resizable=0;points=[];fontFamily=Helvetica;fontSize=11;fontColor=default;" vertex="1" connectable="0" parent="koB_RqYg8yk5omxa3pV3-95">
          <mxGeometry x="0.0132" y="4" relative="1" as="geometry">
            <mxPoint x="8" as="offset" />
          </mxGeometry>
        </mxCell>
        <mxCell id="koB_RqYg8yk5omxa3pV3-56" value="ms orders" style="" vertex="1" parent="koB_RqYg8yk5omxa3pV3-45">
          <mxGeometry x="80" y="120" width="120" height="60" as="geometry" />
        </mxCell>
        <mxCell id="koB_RqYg8yk5omxa3pV3-80" style="rounded=0;orthogonalLoop=1;jettySize=auto;html=1;entryX=0;entryY=0.5;entryDx=0;entryDy=0;labelBackgroundColor=default;strokeColor=default;align=center;verticalAlign=middle;fontFamily=Helvetica;fontSize=11;fontColor=default;endArrow=classic;startArrow=classic;startFill=1;exitX=1;exitY=0.75;exitDx=0;exitDy=0;" edge="1" parent="koB_RqYg8yk5omxa3pV3-45" source="koB_RqYg8yk5omxa3pV3-57" target="koB_RqYg8yk5omxa3pV3-68">
          <mxGeometry relative="1" as="geometry">
            <mxPoint x="210" y="270" as="sourcePoint" />
          </mxGeometry>
        </mxCell>
        <mxCell id="koB_RqYg8yk5omxa3pV3-81" value="new-event-added" style="edgeLabel;html=1;align=center;verticalAlign=middle;resizable=0;points=[];fontFamily=Helvetica;fontSize=11;fontColor=default;" vertex="1" connectable="0" parent="koB_RqYg8yk5omxa3pV3-80">
          <mxGeometry x="-0.0164" relative="1" as="geometry">
            <mxPoint as="offset" />
          </mxGeometry>
        </mxCell>
        <mxCell id="koB_RqYg8yk5omxa3pV3-57" value="ms catalog" style="" vertex="1" parent="koB_RqYg8yk5omxa3pV3-45">
          <mxGeometry x="80" y="270" width="120" height="60" as="geometry" />
        </mxCell>
        <mxCell id="koB_RqYg8yk5omxa3pV3-82" style="shape=connector;rounded=0;orthogonalLoop=1;jettySize=auto;html=1;exitX=1;exitY=0;exitDx=0;exitDy=0;entryX=0.016;entryY=0.706;entryDx=0;entryDy=0;labelBackgroundColor=default;strokeColor=default;align=center;verticalAlign=middle;fontFamily=Helvetica;fontSize=11;fontColor=default;endArrow=classic;entryPerimeter=0;startArrow=none;startFill=0;" edge="1" parent="koB_RqYg8yk5omxa3pV3-45" source="koB_RqYg8yk5omxa3pV3-58" target="koB_RqYg8yk5omxa3pV3-68">
          <mxGeometry relative="1" as="geometry" />
        </mxCell>
        <mxCell id="koB_RqYg8yk5omxa3pV3-89" value="new-event-added" style="edgeLabel;html=1;align=center;verticalAlign=middle;resizable=0;points=[];fontFamily=Helvetica;fontSize=11;fontColor=default;" vertex="1" connectable="0" parent="koB_RqYg8yk5omxa3pV3-82">
          <mxGeometry x="0.0138" y="3" relative="1" as="geometry">
            <mxPoint as="offset" />
          </mxGeometry>
        </mxCell>
        <mxCell id="koB_RqYg8yk5omxa3pV3-58" value="ms inventory" style="" vertex="1" parent="koB_RqYg8yk5omxa3pV3-45">
          <mxGeometry x="80" y="400" width="120" height="60" as="geometry" />
        </mxCell>
        <mxCell id="koB_RqYg8yk5omxa3pV3-75" value="db users" style="shape=cylinder3;whiteSpace=wrap;html=1;boundedLbl=1;backgroundOutline=1;size=15;fontFamily=Helvetica;fontSize=11;fontColor=default;" vertex="1" parent="koB_RqYg8yk5omxa3pV3-45">
          <mxGeometry x="480" y="65" width="60" height="70" as="geometry" />
        </mxCell>
        <mxCell id="koB_RqYg8yk5omxa3pV3-76" style="edgeStyle=entityRelationEdgeStyle;shape=connector;rounded=0;orthogonalLoop=1;jettySize=auto;html=1;exitX=1;exitY=0.5;exitDx=0;exitDy=0;entryX=0;entryY=0.5;entryDx=0;entryDy=0;entryPerimeter=0;labelBackgroundColor=default;strokeColor=default;align=center;verticalAlign=middle;fontFamily=Helvetica;fontSize=11;fontColor=default;endArrow=classic;" edge="1" parent="koB_RqYg8yk5omxa3pV3-45" source="koB_RqYg8yk5omxa3pV3-47" target="koB_RqYg8yk5omxa3pV3-75">
          <mxGeometry relative="1" as="geometry" />
        </mxCell>
        <mxCell id="koB_RqYg8yk5omxa3pV3-97" style="shape=connector;rounded=0;orthogonalLoop=1;jettySize=auto;html=1;exitX=0.5;exitY=0;exitDx=0;exitDy=0;entryX=1;entryY=0;entryDx=0;entryDy=0;labelBackgroundColor=default;strokeColor=default;align=center;verticalAlign=middle;fontFamily=Helvetica;fontSize=11;fontColor=default;endArrow=classic;" edge="1" parent="koB_RqYg8yk5omxa3pV3-45" source="koB_RqYg8yk5omxa3pV3-68" target="koB_RqYg8yk5omxa3pV3-56">
          <mxGeometry relative="1" as="geometry" />
        </mxCell>
        <mxCell id="koB_RqYg8yk5omxa3pV3-98" value="payment-processed" style="edgeLabel;html=1;align=center;verticalAlign=middle;resizable=0;points=[];fontFamily=Helvetica;fontSize=11;fontColor=default;" vertex="1" connectable="0" parent="koB_RqYg8yk5omxa3pV3-97">
          <mxGeometry x="0.3132" y="-1" relative="1" as="geometry">
            <mxPoint x="27" as="offset" />
          </mxGeometry>
        </mxCell>
        <mxCell id="koB_RqYg8yk5omxa3pV3-68" value="kafka" style="ellipse;whiteSpace=wrap;html=1;aspect=fixed;fontFamily=Helvetica;fontSize=11;fontColor=default;" vertex="1" parent="koB_RqYg8yk5omxa3pV3-45">
          <mxGeometry x="550" y="245" width="110" height="110" as="geometry" />
        </mxCell>
        <mxCell id="koB_RqYg8yk5omxa3pV3-90" style="shape=connector;rounded=0;orthogonalLoop=1;jettySize=auto;html=1;exitX=1;exitY=1;exitDx=0;exitDy=0;entryX=0.194;entryY=0.911;entryDx=0;entryDy=0;labelBackgroundColor=default;strokeColor=default;align=center;verticalAlign=middle;fontFamily=Helvetica;fontSize=11;fontColor=default;endArrow=none;endFill=0;startArrow=classic;startFill=1;entryPerimeter=0;" edge="1" parent="koB_RqYg8yk5omxa3pV3-45" source="koB_RqYg8yk5omxa3pV3-58" target="koB_RqYg8yk5omxa3pV3-68">
          <mxGeometry relative="1" as="geometry" />
        </mxCell>
        <mxCell id="koB_RqYg8yk5omxa3pV3-91" value="new-purchase-approved" style="edgeLabel;html=1;align=center;verticalAlign=middle;resizable=0;points=[];fontFamily=Helvetica;fontSize=11;fontColor=default;" vertex="1" connectable="0" parent="koB_RqYg8yk5omxa3pV3-90">
          <mxGeometry x="-0.2463" relative="1" as="geometry">
            <mxPoint x="30" y="-9" as="offset" />
          </mxGeometry>
        </mxCell>
        <mxCell id="koB_RqYg8yk5omxa3pV3-92" style="shape=connector;rounded=0;orthogonalLoop=1;jettySize=auto;html=1;exitX=1;exitY=0.5;exitDx=0;exitDy=0;labelBackgroundColor=default;strokeColor=default;align=center;verticalAlign=middle;fontFamily=Helvetica;fontSize=11;fontColor=default;endArrow=classic;startArrow=none;startFill=0;endFill=1;entryX=0;entryY=0;entryDx=0;entryDy=0;" edge="1" parent="koB_RqYg8yk5omxa3pV3-45" source="koB_RqYg8yk5omxa3pV3-56" target="koB_RqYg8yk5omxa3pV3-68">
          <mxGeometry relative="1" as="geometry">
            <mxPoint x="470" y="190" as="targetPoint" />
          </mxGeometry>
        </mxCell>
        <mxCell id="koB_RqYg8yk5omxa3pV3-93" value="new-payment-request" style="edgeLabel;html=1;align=center;verticalAlign=middle;resizable=0;points=[];fontFamily=Helvetica;fontSize=11;fontColor=default;" vertex="1" connectable="0" parent="koB_RqYg8yk5omxa3pV3-92">
          <mxGeometry x="-0.0152" y="2" relative="1" as="geometry">
            <mxPoint as="offset" />
          </mxGeometry>
        </mxCell>
        <mxCell id="koB_RqYg8yk5omxa3pV3-94" value="db catalog" style="shape=cylinder3;whiteSpace=wrap;html=1;boundedLbl=1;backgroundOutline=1;size=15;fontFamily=Helvetica;fontSize=11;fontColor=default;" vertex="1" parent="koB_RqYg8yk5omxa3pV3-45">
          <mxGeometry x="240" y="220" width="60" height="70" as="geometry" />
        </mxCell>
        <mxCell id="koB_RqYg8yk5omxa3pV3-99" style="shape=connector;rounded=0;orthogonalLoop=1;jettySize=auto;html=1;exitX=1;exitY=0.25;exitDx=0;exitDy=0;entryX=0;entryY=0.5;entryDx=0;entryDy=0;entryPerimeter=0;labelBackgroundColor=default;strokeColor=default;align=center;verticalAlign=middle;fontFamily=Helvetica;fontSize=11;fontColor=default;endArrow=classic;" edge="1" parent="koB_RqYg8yk5omxa3pV3-45" source="koB_RqYg8yk5omxa3pV3-57" target="koB_RqYg8yk5omxa3pV3-94">
          <mxGeometry relative="1" as="geometry" />
        </mxCell>
        <mxCell id="koB_RqYg8yk5omxa3pV3-49" style="edgeStyle=entityRelationEdgeStyle;rounded=0;orthogonalLoop=1;jettySize=auto;html=1;entryX=0;entryY=0.5;entryDx=0;entryDy=0;" edge="1" parent="1" target="koB_RqYg8yk5omxa3pV3-46">
          <mxGeometry relative="1" as="geometry">
            <mxPoint x="360" y="310" as="sourcePoint" />
          </mxGeometry>
        </mxCell>
        <mxCell id="koB_RqYg8yk5omxa3pV3-63" style="edgeStyle=entityRelationEdgeStyle;rounded=0;orthogonalLoop=1;jettySize=auto;html=1;exitX=0.998;exitY=0.378;exitDx=0;exitDy=0;entryX=0;entryY=0.5;entryDx=0;entryDy=0;exitPerimeter=0;" edge="1" parent="1" source="7" target="koB_RqYg8yk5omxa3pV3-56">
          <mxGeometry relative="1" as="geometry" />
        </mxCell>
        <mxCell id="koB_RqYg8yk5omxa3pV3-64" style="edgeStyle=entityRelationEdgeStyle;rounded=0;orthogonalLoop=1;jettySize=auto;html=1;entryX=0;entryY=0.5;entryDx=0;entryDy=0;" edge="1" parent="1" target="koB_RqYg8yk5omxa3pV3-57">
          <mxGeometry relative="1" as="geometry">
            <mxPoint x="360" y="349" as="sourcePoint" />
          </mxGeometry>
        </mxCell>
        <mxCell id="koB_RqYg8yk5omxa3pV3-65" style="edgeStyle=entityRelationEdgeStyle;rounded=0;orthogonalLoop=1;jettySize=auto;html=1;entryX=0;entryY=0.5;entryDx=0;entryDy=0;" edge="1" parent="1" target="koB_RqYg8yk5omxa3pV3-58">
          <mxGeometry relative="1" as="geometry">
            <mxPoint x="360" y="370" as="sourcePoint" />
          </mxGeometry>
        </mxCell>
        <mxCell id="koB_RqYg8yk5omxa3pV3-87" value="db inventory" style="shape=cylinder3;whiteSpace=wrap;html=1;boundedLbl=1;backgroundOutline=1;size=15;fontFamily=Helvetica;fontSize=11;fontColor=default;" vertex="1" parent="1">
          <mxGeometry x="710" y="580" width="60" height="70" as="geometry" />
        </mxCell>
        <mxCell id="koB_RqYg8yk5omxa3pV3-88" style="edgeStyle=entityRelationEdgeStyle;shape=connector;rounded=0;orthogonalLoop=1;jettySize=auto;html=1;entryX=0;entryY=0.5;entryDx=0;entryDy=0;entryPerimeter=0;labelBackgroundColor=default;strokeColor=default;align=center;verticalAlign=middle;fontFamily=Helvetica;fontSize=11;fontColor=default;endArrow=classic;exitX=0.5;exitY=1;exitDx=0;exitDy=0;" edge="1" parent="1" source="koB_RqYg8yk5omxa3pV3-58" target="koB_RqYg8yk5omxa3pV3-87">
          <mxGeometry relative="1" as="geometry">
            <mxPoint x="580" y="510" as="sourcePoint" />
          </mxGeometry>
        </mxCell>
      </root>
    </mxGraphModel>
  </diagram>
</mxfile>
